<svg id="Capa_1" data-name="Capa 1" xmlns="http://www.w3.org/2000/svg" viewBox="0 0 232 295"><defs><style>.cls-1{font-size:40px;font-family:OpenSans-Semibold, Open Sans;font-weight:600;}.cls-1,.cls-2{fill:#a00046;}</style></defs><text class="cls-1" transform="translate(80.12 205.52)">Mi <tspan x="-41.78" y="33">agenda</tspan></text><path class="cls-2" d="M143.88,145.13H72.25a9.44,9.44,0,0,1-9.43-9.43V71.6a9.44,9.44,0,0,1,9.43-9.42h71.63a9.44,9.44,0,0,1,9.43,9.42v64.1a9.44,9.44,0,0,1-9.43,9.43ZM72.25,66a5.67,5.67,0,0,0-5.66,5.65v64.1a5.67,5.67,0,0,0,5.66,5.66h71.63a5.67,5.67,0,0,0,5.66-5.66V71.6A5.67,5.67,0,0,0,143.88,66Zm0,0"/><path class="cls-2" d="M151.42,84.8H64.71a1.89,1.89,0,1,1,0-3.77h86.71a1.89,1.89,0,1,1,0,3.77Zm0,0"/><path class="cls-2" d="M83.56,73.49a1.89,1.89,0,0,1-1.89-1.89V56.52a1.89,1.89,0,0,1,3.77,0V71.6a1.89,1.89,0,0,1-1.88,1.89Zm0,0"/><path class="cls-2" d="M132.57,73.49a1.89,1.89,0,0,1-1.88-1.89V56.52a1.89,1.89,0,0,1,3.77,0V71.6a1.89,1.89,0,0,1-1.89,1.89Zm0,0"/></svg>