<svg id="Capa_1" data-name="Capa 1" xmlns="http://www.w3.org/2000/svg" viewBox="0 0 232 295"><defs><style>.cls-1{font-size:40px;font-family:OpenSans-Semibold, Open Sans;font-weight:600;}.cls-1,.cls-2{fill:#a00046;}</style></defs><text class="cls-1" transform="translate(91.97 205.52)">Mi<tspan x="-84.7" y="33">comunidad</tspan></text><path class="cls-2" d="M159.11,108.09H147.17a17.7,17.7,0,0,0-4.69.63,17.87,17.87,0,0,0-15.93-9.79h-21.1a17.87,17.87,0,0,0-15.93,9.79,17.7,17.7,0,0,0-4.69-.63H72.89A17.88,17.88,0,0,0,55,126V145a10.73,10.73,0,0,0,10.72,10.72h100.5A10.73,10.73,0,0,0,177,145V126A17.88,17.88,0,0,0,159.11,108.09ZM169.83,145a3.59,3.59,0,0,1-3.58,3.58H144.41V116.79c0-.4,0-.79,0-1.18a10.75,10.75,0,0,1,2.8-.38h11.94A10.73,10.73,0,0,1,169.83,126ZM65.75,148.61A3.59,3.59,0,0,1,62.17,145V126a10.73,10.73,0,0,1,10.72-10.72H84.83a10.75,10.75,0,0,1,2.8.38c0,.39,0,.78,0,1.18v31.82Zm39.7-42.54h21.1a10.73,10.73,0,0,1,10.72,10.72v31.82H94.73V116.79A10.73,10.73,0,0,1,105.45,106.07Z"/><path class="cls-2" d="M78.86,106.1A15.88,15.88,0,1,0,63,90.23,15.89,15.89,0,0,0,78.86,106.1Zm8.73-15.87a8.73,8.73,0,1,1-8.73-8.73A8.74,8.74,0,0,1,87.59,90.23Z"/><path class="cls-2" d="M116,97.05A21.21,21.21,0,1,0,94.79,75.84,21.23,21.23,0,0,0,116,97.05Zm0-35.27a14.06,14.06,0,1,1-14.06,14.06A14.08,14.08,0,0,1,116,61.78Z"/><path class="cls-2" d="M153.14,106.1a15.88,15.88,0,1,0-15.87-15.87A15.89,15.89,0,0,0,153.14,106.1Zm0-24.6a8.73,8.73,0,1,1-8.73,8.73A8.74,8.74,0,0,1,153.14,81.5Z"/></svg>