<svg id="Capa_1" data-name="Capa 1" xmlns="http://www.w3.org/2000/svg" viewBox="0 0 344 295"><defs><style>.cls-1{font-size:40px;font-family:OpenSans-Semibold, Open Sans;font-weight:600;}.cls-1,.cls-2{fill:#a00046;}</style></defs><text class="cls-1" transform="translate(122.58 204.01)">Mis<tspan x="-86.66" y="33">documentos</tspan></text><path class="cls-2" d="M194,80.41,170.58,57a2.92,2.92,0,0,0-2.07-.86h-41a8.79,8.79,0,0,0-8.77,8.78v82.29a8.79,8.79,0,0,0,8.77,8.78h58.51a8.79,8.79,0,0,0,8.78-8.78V82.48a3,3,0,0,0-.86-2.07ZM171.43,66.14l13.42,13.41H174.36a2.93,2.93,0,0,1-2.93-2.92Zm14.63,84H127.55a2.93,2.93,0,0,1-2.92-2.93V64.93A2.93,2.93,0,0,1,127.55,62h38V76.63a8.78,8.78,0,0,0,8.78,8.77H189v61.82a2.93,2.93,0,0,1-2.93,2.93Zm0,0"/><path class="cls-2" d="M174.36,97.49h-35.1a2.93,2.93,0,1,0,0,5.85h35.1a2.93,2.93,0,0,0,0-5.85Zm0,0"/><path class="cls-2" d="M174.36,109.2h-35.1a2.93,2.93,0,1,0,0,5.85h35.1a2.93,2.93,0,0,0,0-5.85Zm0,0"/><path class="cls-2" d="M174.36,120.9h-35.1a2.93,2.93,0,1,0,0,5.85h35.1a2.93,2.93,0,0,0,0-5.85Zm0,0"/><path class="cls-2" d="M162.66,132.6h-23.4a2.93,2.93,0,1,0,0,5.85h23.4a2.93,2.93,0,0,0,0-5.85Zm0,0"/></svg>