<svg id="Capa_1" data-name="Capa 1" xmlns="http://www.w3.org/2000/svg" viewBox="0 0 171 203"><defs><style>.cls-1{font-size:40px;font-family:OpenSans-Semibold, Open Sans;font-weight:600;}.cls-1,.cls-2{fill:#a00046;}</style></defs><text class="cls-1" transform="translate(49.89 155.06)">Mis<tspan x="-48.97" y="33">sesiones</tspan></text><path class="cls-2" d="M133.9,10.62H29.73A10.43,10.43,0,0,0,19.31,21v62.5A10.43,10.43,0,0,0,29.73,94H133.9a10.42,10.42,0,0,0,10.41-10.41V21A10.42,10.42,0,0,0,133.9,10.62Zm5.21,72.92a5.22,5.22,0,0,1-5.21,5.21H29.73a5.22,5.22,0,0,1-5.21-5.21V21a5.22,5.22,0,0,1,5.21-5.21H133.9A5.22,5.22,0,0,1,139.11,21Z"/><path class="cls-2" d="M110.46,99.16H53.17a2.61,2.61,0,1,0,0,5.21h57.29a2.61,2.61,0,0,0,0-5.21Z"/><path class="cls-2" d="M70.1,31.81a2.6,2.6,0,0,0-3.91,2.25V70.52a2.59,2.59,0,0,0,1.31,2.25,2.48,2.48,0,0,0,1.29.35,2.62,2.62,0,0,0,1.31-.35l31.25-18.23a2.6,2.6,0,0,0,0-4.5ZM71.4,66V38.59l23.47,13.7Z"/></svg>