<svg id="Capa_1" data-name="Capa 1" xmlns="http://www.w3.org/2000/svg" viewBox="0 0 722.97 284"><defs><style>.cls-1,.cls-2{fill:#ff291e;}.cls-2{fill-rule:evenodd;}.cls-3{fill:#ff542d;}.cls-4{fill:#a00046;}</style></defs><path class="cls-1" d="M608.9,31.06V82.92L586.67,31.06H581.1c2.64,14.78-2.55,29.4-14,38.26v67.36h22.66V85l23,51.72h18.59V31.06Z"/><path class="cls-1" d="M638.66,50.78l1.6-19.91H703.8V50.78H683.7v85.9H659.88V50.78Z"/><path class="cls-2" d="M544.44,63.84c-33.47-2.13-21.31-47,7.19-44.35C577.6,24.51,568.58,64.64,544.44,63.84Zm3-21.42c1.28,6,1.47,12.2,2.51,18.27,7.84-2.93,14.11-9.51,15.15-18.23C559.17,42.68,553.3,43.92,547.44,42.42ZM528.26,53.21A18.26,18.26,0,0,0,545,61.51c-.31-6.06.51-11.95-.06-17.95A116.08,116.08,0,0,0,528.26,53.21ZM546.06,38c3.33-4.72,5.65-10.21,10-14.11-7-4.58-15.14-1.36-21.08,3.46ZM526,48.17c5.62-3.16,11.81-4.56,17.8-6.79-1.07-2-9.64-9.83-12.21-11.24C527.55,34.94,523.93,41.68,526,48.17Zm39.1-12.45c-.65-4.44-3-7.36-5.92-9.9-3.79,4.2-6.94,8.89-10.4,13.37C554.37,39.46,559.61,36.59,565.12,35.72Z"/><path class="cls-1" d="M473.28,131.6,457,86v50.7H434.06V31.06h24.26l15,47.51L488.1,31.06h24.27V136.68h-23V86Z"/><path class="cls-3" d="M15,136.68V32.4c14.71-.07,35-6.61,49.56,2.3,31.45,19.89,16.69,93.64-27.18,75v27ZM37.38,89.49c26.25,18,29.25-51.7,0-38.58Z"/><path class="cls-3" d="M89.73,136.68V32.4h47.05V52.05h-24.1V74.86h22.95V93.51H112.68v22.81h24.1v20.36Z"/><path class="cls-3" d="M146.9,136.68V32.4c14.71-.07,34.95-6.61,49.55,2.3,31.46,19.89,16.69,93.64-27.18,75v27Zm22.37-47.19c26.26,18,29.26-51.7,0-38.58Z"/><path class="cls-3" d="M222.42,136.68V32.4c14.71-.07,35-6.61,49.56,2.3,31.45,19.89,16.69,93.64-27.18,75v27ZM244.8,89.49c26.25,18,29.25-51.7,0-38.58Z"/><path class="cls-3" d="M298.74,136.68V32.4h47.05V52.05h-24.1V74.86h22.95V93.51H321.69v22.81h24.1v20.36Z"/><path class="cls-3" d="M422.1,136.68H397.58l-15.35-32.13h-2.44v32.13H357.41V32.4c20.8-1.37,50-8.93,60.82,15.35,6.88,15.07,6.32,48.92-13.48,55.22Zm-42.31-49.2c26.49,10.45,27.23-46.51,0-36.72Z"/><path class="cls-1" d="M528.08,136.68V78h23.68v58.72"/><path class="cls-4" d="M704.48,196.36c-21.68.59-46.18,3.2-62.68,18.68-1.24,1.65-3.86,2.43-6,2.46-10.92-.92-7.91-31.8-27.41-9.25.17-6.05,3.78-10-1.93-11.42-5.91,2.24-2.9,7.41-5.25,17.41-12.79,4.79-25.2,12-31.06,4.14,38.63-5.06,3.15-30.93-6-4-4.16,1.76-12.08,9-14,3.41-2.68-15.7-9.73-18.33-21.17-4.92,2.15-21.83-13-13-22.72.29.26-6.21,2.89-10,1.84-14.55-8-6.16-7.14,11.13-8.41,15.89-2.32,1.52-6,2.24-9.47,2,.88-5.4.67-13.24-5.15-14.77-1.36-9.19-15.37-1.74-17.24,4.77-10.24,17.35,8.72,36.86,20.51,16.26a25.9,25.9,0,0,0,10.55-1c-1.35,3.52,2.9,7.11,5.51,3.8,12.56-16.24,16.78-19.47,18.07-20.07.78,4.2-.22,11.2-.47,16.47,2.52,11.72,16.44-13.14,19.26-11.78,2.69,14.32,8.4,21.22,23.35,11.3,8,12.06,21.19,5.32,35.72.08-1.6,3.79,3.69,6.77,5.74,3,8.23-16.19,12-17.94,13.32-17.94,2.62.65,5,12.7,8.5,14.25,13.62,11,26.18-13.18,45.05-14.49h0a142.18,142.18,0,0,1,32.37-3.7C709.32,202.41,708.64,196,704.48,196.36ZM579.36,208.71a7.14,7.14,0,0,1,1.48.13c-1.14.75-3.42,1.73-8,2.61A8.82,8.82,0,0,1,579.36,208.71Zm-99.58,15c-12.36,7.06-9.55-18.21-1-19.47-5.64,5.22-4.43,14.07,3.19,16.92A10.11,10.11,0,0,1,479.78,223.74Zm4.19-8.59c-3.86-1.56-2.48-5.11-.33-6.88A14.81,14.81,0,0,1,484,215.15Z"/><path class="cls-4" d="M672.86,206.46l.23-.05Z"/><path class="cls-4" d="M467.19,197.55c.47-3.73-5.58-4.67-6.2-.93-4.95,20-7.64,24.31-8.56,25.25-1.9-3.42-2.74-8.6-4-14.68-6-9.66-10.14,11.83-13.45,14.05-2.08-17.83-1.3-38.32-27.1-41.24-50.22-4.45-99.39,14.26-147.82,25.18-68.67,17.18-139.35,37.18-210.58,36.09V224c35.82-4,32.79-58.2-3.28-58.06-36.05-.12-39.07,54-3.27,58.06v17.24c-2.79.71-15.55-2.26-14.83,3.28-.74,5.52,12.08,2.57,14.83,3.27.84,2.81-2.5,17.55,3.27,16.77,5.77.81,2.45-14,3.28-16.77,97.72.61,190.86-34,285.34-54.37,27.05-4.41,57.58-14.64,83.88-3,5.91,3.4,8.39,10.25,8.24,16.77.55,24,9.89,26.73,17.29,10.39C452.82,245.33,464.91,211.88,467.19,197.55Zm-421,20.09H44.06v-.11c-33.75-4-21-55.54,10.78-43.29C77.26,182.77,70.24,218.3,46.21,217.64Zm402-10.28a1.79,1.79,0,0,1,.37.58A1.71,1.71,0,0,0,448.17,207.36Z"/></svg>