<svg id="Capa_1" data-name="Capa 1" xmlns="http://www.w3.org/2000/svg" viewBox="0 0 226 215"><defs><style>.cls-1{fill:#009193;}</style></defs><path class="cls-1" d="M108.65,123.79c-10.3,0-21.38-4-32-11.64a81.25,81.25,0,0,1-13.1-11.57,2.6,2.6,0,0,1,0-3.39,80.7,80.7,0,0,1,13.1-11.57C87.28,78,98.35,74,108.65,74s21.37,4,32,11.65a80.35,80.35,0,0,1,13.09,11.57,2.57,2.57,0,0,1,0,3.39,80.89,80.89,0,0,1-13.09,11.57c-10.67,7.62-21.75,11.64-32,11.64ZM69,98.88A80.82,80.82,0,0,0,79.72,108c6.8,4.84,17.34,10.6,28.93,10.6s22.13-5.76,28.92-10.6a81.74,81.74,0,0,0,10.71-9.13,81.06,81.06,0,0,0-10.71-9.12c-6.79-4.84-17.33-10.61-28.92-10.61S86.52,84.92,79.72,89.76A80.16,80.16,0,0,0,69,98.88Zm0,0"/><path class="cls-1" d="M108.65,114.93a16.05,16.05,0,1,1,10.57-28.12,2.59,2.59,0,0,1-3.41,3.89,10.87,10.87,0,1,0,3.71,8.18,2.59,2.59,0,0,1,5.18,0,16.07,16.07,0,0,1-16,16.05Zm0,0"/><path class="cls-1" d="M108.65,104.06a5.18,5.18,0,1,1,5.17-5.18,5.18,5.18,0,0,1-5.17,5.18Zm0,0"/></svg>